HIERARCHY
ROOT joint_Root
{
	OFFSET 0.0 0.0 0.0
	CHANNELS 6 Xposition Yposition Zposition Zrotation Xrotation Yrotation 
	JOINT Hips
	{
		OFFSET -0.726466 93.3139 -2.00062
		CHANNELS 6 Xposition Yposition Zposition Zrotation Xrotation Yrotation 
		JOINT Spine
		{
			OFFSET 15.7357 0.0 0.0
			CHANNELS 6 Xposition Yposition Zposition Zrotation Xrotation Yrotation 
			JOINT Chest
			{
				OFFSET 8.98455 -0.406207 0.0
				CHANNELS 6 Xposition Yposition Zposition Zrotation Xrotation Yrotation 
				JOINT Neck
				{
					OFFSET 16.3773 0.0 0.0
					CHANNELS 6 Xposition Yposition Zposition Zrotation Xrotation Yrotation 
					JOINT Head
					{
						OFFSET 6.45672 0.0 0.0
						CHANNELS 6 Xposition Yposition Zposition Zrotation Xrotation Yrotation 
						End Site
						{
							OFFSET 0.0 0.0 0.0
						}
					}
				}
				JOINT Shoulder_L
				{
					OFFSET 12.9942 -0.242716 4.98039
					CHANNELS 6 Xposition Yposition Zposition Zrotation Xrotation Yrotation 
					JOINT UpperArm_L
					{
						OFFSET 5.34809 0.0 0.0
						CHANNELS 6 Xposition Yposition Zposition Zrotation Xrotation Yrotation 
						JOINT LowerArm_L
						{
							OFFSET 24.3286 1.87007e-05 0.0
							CHANNELS 6 Xposition Yposition Zposition Zrotation Xrotation Yrotation 
							JOINT Hand_L
							{
								OFFSET 22.2916 0.0 0.0
								CHANNELS 6 Xposition Yposition Zposition Zrotation Xrotation Yrotation 
								End Site
								{
									OFFSET 0.0 0.0 0.0
								}
							}
						}
					}
				}
				JOINT Shoulder_R
				{
					OFFSET 12.9945 -0.242716 -4.98039
					CHANNELS 6 Xposition Yposition Zposition Zrotation Xrotation Yrotation 
					JOINT UpperArm_R
					{
						OFFSET -5.34813 0.0 0.0
						CHANNELS 6 Xposition Yposition Zposition Zrotation Xrotation Yrotation 
						JOINT LowerArm_R
						{
							OFFSET -24.3289 0.000322201 0.0
							CHANNELS 6 Xposition Yposition Zposition Zrotation Xrotation Yrotation 
							JOINT Hand_R
							{
								OFFSET -22.2915 -0.000108084 0.0
								CHANNELS 6 Xposition Yposition Zposition Zrotation Xrotation Yrotation 
								End Site
								{
									OFFSET 0.0 0.0 0.0
								}
							}
						}
					}
				}
			}
		}
		JOINT UpperLeg_L
		{
			OFFSET -2.19248 -6.46944 0.0
			CHANNELS 6 Xposition Yposition Zposition Zrotation Xrotation Yrotation 
			JOINT LowerLeg_L
			{
				OFFSET 39.0811 0.0 -1.23785e-05
				CHANNELS 6 Xposition Yposition Zposition Zrotation Xrotation Yrotation 
				JOINT Foot_L
				{
					OFFSET 40.9854 0.0 -1.26872e-05
					CHANNELS 6 Xposition Yposition Zposition Zrotation Xrotation Yrotation 
					JOINT Toes_L
					{
						OFFSET 11.7543 0.0 0.0
						CHANNELS 6 Xposition Yposition Zposition Zrotation Xrotation Yrotation 
						End Site
						{
							OFFSET 0.0 0.0 0.0
						}
					}
				}
			}
		}
		JOINT UpperLeg_R
		{
			OFFSET -2.19251 6.46944 0.0
			CHANNELS 6 Xposition Yposition Zposition Zrotation Xrotation Yrotation 
			JOINT LowerLeg_R
			{
				OFFSET -39.0811 -0.00228153 -0.0401928
				CHANNELS 6 Xposition Yposition Zposition Zrotation Xrotation Yrotation 
				JOINT Foot_R
				{
					OFFSET -40.9854 0.0 0.0
					CHANNELS 6 Xposition Yposition Zposition Zrotation Xrotation Yrotation 
					JOINT Toes_R
					{
						OFFSET -11.7543 0.0 0.0
						CHANNELS 6 Xposition Yposition Zposition Zrotation Xrotation Yrotation 
						End Site
						{
							OFFSET 0.0 0.0 0.0
						}
					}
				}
			}
		}
	}
}
MOTION
Frames:	5
Frame Time:	0.0333333
0.000000 0.000000 0.000000 0.000000 0.000000 -0.000000 -0.822655 92.032200 0.306296 87.739800 -0.677991 2.232660 15.735700 0.000005 -0.000001 82.915000 85.126700 -82.218000 8.984550 -0.406207 -0.000000 1.914510 -1.236990 1.413200 16.377300 -0.000001 -0.000001 2.626290 -2.470170 0.524021 6.456720 -0.000001 -0.000000 2.630360 -1.878550 -0.587180 12.994200 -0.242716 4.980390 -90.104500 0.337979 -72.820400 5.348090 -0.000007 -0.000001 -66.053100 38.812500 -16.398700 24.328600 0.000019 0.000005 2.572100 5.529820 -24.990200 22.291600 -0.000001 0.000005 3.671420 5.524110 -7.537860 12.994500 -0.242716 -4.980390 88.100800 5.853180 -71.988000 -5.348130 -0.000001 -0.000004 -65.616900 35.378700 -16.232000 -24.328900 0.000322 -0.000009 -0.197417 -0.567246 -19.093000 -22.291500 -0.000108 -0.000004 10.134600 5.510160 -6.948820 -2.192480 -6.469440 -0.000000 -168.898000 -18.374200 -3.125950 39.081100 -0.000007 -0.000012 -0.187423 0.474279 21.562900 40.985400 -0.000006 -0.000013 -7.193140 -1.240490 -63.808200 11.754300 -0.000000 0.000003 -0.000115 -0.001163 -16.622000 -2.192510 6.469440 -0.000001 173.967000 23.686100 179.838000 -39.081100 -0.002282 -0.040193 -0.057126 0.182232 18.351700 -40.985400 0.000008 0.000006 -4.609250 2.225380 -63.195800 -11.754300 -0.000006 -0.000006 -0.002346 -0.032962 -17.913500
0.000000 0.000000 0.000000 0.000000 0.000000 -0.000000 -0.826229 92.053900 0.213336 87.728000 -0.706197 2.145030 15.735700 0.000005 -0.000001 82.728600 85.150100 -82.025500 8.984550 -0.406207 -0.000000 1.864360 -1.263140 1.425430 16.377300 -0.000001 -0.000001 2.307120 -2.453510 0.565991 6.456720 -0.000001 -0.000000 2.275180 -1.797620 -0.542878 12.994200 -0.242716 4.980390 -90.097000 0.307020 -72.467300 5.348090 -0.000007 -0.000001 -66.315500 36.181800 -15.768200 24.328600 0.000019 0.000005 3.778600 7.707930 -26.214500 22.291600 -0.000001 0.000005 2.903500 5.523710 -7.520840 12.994500 -0.242716 -4.980390 88.130200 5.671650 -71.719700 -5.348130 -0.000001 -0.000004 -66.097100 33.324200 -15.615600 -24.328900 0.000322 -0.000009 -0.202235 -0.553455 -19.974700 -22.291500 -0.000108 -0.000004 11.530600 5.510860 -6.975580 -2.192480 -6.469440 -0.000000 -168.948000 -18.407800 -3.252890 39.081100 -0.000007 -0.000012 -0.184306 0.468149 21.489400 40.985400 -0.000006 -0.000013 -7.175220 -1.322030 -63.705900 11.754300 -0.000000 0.000003 -0.000118 -0.001187 -16.623000 -2.192510 6.469440 -0.000001 174.075000 23.638900 179.677000 -39.081100 -0.002282 -0.040193 -0.053066 0.170446 18.306300 -40.985400 0.000008 0.000006 -4.426980 2.179170 -63.121500 -11.754300 -0.000006 -0.000006 -0.002414 -0.033787 -17.947000
0.000000 0.000000 0.000000 0.000000 0.000000 -0.000000 -0.824086 92.086300 0.117448 87.730500 -0.697846 2.019610 15.735700 0.000005 -0.000001 82.778300 85.215600 -82.079800 8.984550 -0.406207 -0.000000 1.735250 -1.238940 1.414560 16.377300 -0.000001 -0.000001 2.086950 -2.394180 0.511391 6.456720 -0.000001 -0.000000 1.823620 -1.849760 -0.319571 12.994200 -0.242716 4.980390 -90.068000 0.210180 -72.084000 5.348090 -0.000007 -0.000001 -66.407900 32.503000 -15.194600 24.328600 0.000019 0.000005 4.294770 8.418810 -27.155200 22.291600 -0.000001 0.000005 3.068250 5.525620 -7.603600 12.994500 -0.242716 -4.980390 88.142300 5.498930 -71.301100 -5.348130 -0.000001 -0.000004 -66.480400 30.265800 -14.930000 -24.328900 0.000322 -0.000009 -0.234754 -0.616355 -20.764600 -22.291500 -0.000108 -0.000004 13.206200 5.511250 -6.996110 -2.192480 -6.469440 -0.000000 -169.011000 -18.437500 -3.365620 39.081100 -0.000007 -0.000012 -0.181123 0.464537 21.301000 40.985400 -0.000006 -0.000013 -7.146480 -1.308900 -63.542000 11.754300 -0.000000 0.000003 -0.000125 -0.001248 -16.625200 -2.192510 6.469440 -0.000001 174.198000 23.664800 179.499000 -39.081100 -0.002282 -0.040193 -0.045820 0.149334 18.216000 -40.985400 0.000008 0.000006 -4.185030 2.121150 -63.027300 -11.754300 -0.000006 -0.000006 -0.002418 -0.033834 -17.948900
0.000000 0.000000 0.000000 0.000000 0.000000 -0.000000 -0.836363 92.107900 0.007302 87.725400 -0.669434 1.925490 15.735700 0.000005 -0.000001 82.577300 85.257300 -81.871800 8.984550 -0.406207 -0.000000 1.648530 -1.262390 1.427870 16.377300 -0.000001 -0.000001 1.732260 -2.328880 0.509235 6.456720 -0.000001 -0.000000 1.255420 -1.801490 -0.259153 12.994200 -0.242716 4.980390 -90.031100 0.094191 -71.711500 5.348090 -0.000007 -0.000001 -65.745100 28.548700 -15.126700 24.328600 0.000019 0.000005 4.000110 7.730290 -27.468600 22.291600 -0.000001 0.000005 4.258290 5.530960 -7.835130 12.994500 -0.242716 -4.980390 88.161000 5.337190 -70.956400 -5.348130 -0.000001 -0.000004 -66.139400 26.888700 -14.741300 -24.328900 0.000322 -0.000009 -0.296587 -0.764849 -21.126200 -22.291500 -0.000108 -0.000004 14.544100 5.509130 -6.905530 -2.192480 -6.469440 -0.000000 -169.087000 -18.333400 -3.537380 39.081100 -0.000007 -0.000012 -0.177849 0.457805 21.230500 40.985400 -0.000006 -0.000013 -7.133630 -1.432340 -63.430400 11.754300 -0.000000 0.000003 -0.000126 -0.001253 -16.625400 -2.192510 6.469440 -0.000001 174.292000 23.671300 179.346000 -39.081100 -0.002282 -0.040193 -0.044986 0.147447 18.141300 -40.985400 0.000008 0.000006 -4.114640 2.092830 -62.924300 -11.754300 -0.000006 -0.000006 -0.002498 -0.034785 -17.987600
0.000000 0.000000 0.000000 0.000000 0.000000 -0.000000 -0.854713 92.130700 -0.122227 87.713000 -0.698620 1.854570 15.735700 0.000005 -0.000001 82.619900 85.312600 -81.908600 8.984550 -0.406207 -0.000000 1.539540 -1.242200 1.438200 16.377300 -0.000001 -0.000001 1.279320 -2.240910 0.486078 6.456720 -0.000001 -0.000000 0.642263 -1.730760 -0.154607 12.994200 -0.242716 4.980390 -89.981500 -0.055268 -71.502000 5.348090 -0.000007 -0.000001 -64.239600 24.468800 -15.398400 24.328600 0.000019 0.000005 3.952260 7.615400 -27.534600 22.291600 -0.000001 0.000005 5.382010 5.536760 -8.095880 12.994500 -0.242716 -4.980390 88.183500 5.199350 -70.712100 -5.348130 -0.000001 -0.000004 -64.865500 23.583000 -15.022600 -24.328900 0.000322 -0.000009 -0.234781 -0.609028 -20.993500 -22.291500 -0.000108 -0.000004 15.230900 5.508300 -6.871220 -2.192480 -6.469440 -0.000000 -169.096000 -18.454100 -3.638580 39.081100 -0.000007 -0.000012 -0.176008 0.455614 21.122200 40.985400 -0.000006 -0.000013 -7.112070 -1.397900 -63.279700 11.754300 -0.000000 0.000003 -0.000110 -0.001114 -16.620200 -2.192510 6.469440 -0.000001 174.427000 23.621400 179.152000 -39.081100 -0.002282 -0.040193 -0.041002 0.135401 18.127300 -40.985400 0.000008 0.000006 -3.950900 1.993610 -62.839900 -11.754300 -0.000006 -0.000006 -0.002508 -0.034902 -17.992400
